<?xml version="1.0" encoding="UTF-8" standalone="no"?>
<!-- Created with Inkscape (http://www.inkscape.org/) -->

<svg
   xmlns:dc="http://purl.org/dc/elements/1.1/"
   xmlns:cc="http://creativecommons.org/ns#"
   xmlns:rdf="http://www.w3.org/1999/02/22-rdf-syntax-ns#"
   xmlns:svg="http://www.w3.org/2000/svg"
   xmlns="http://www.w3.org/2000/svg"
   xmlns:sodipodi="http://sodipodi.sourceforge.net/DTD/sodipodi-0.dtd"
   xmlns:inkscape="http://www.inkscape.org/namespaces/inkscape"
   width="1000"
   height="1000"
   viewBox="0 0 1000 1000"
   id="svg2"
   version="1.1"
   inkscape:version="0.91 r13725"
   sodipodi:docname="RobotIconTwitter.svg">
  <defs
     id="defs4">
    <filter
       style="color-interpolation-filters:sRGB;"
       inkscape:label="Drop Shadow"
       id="filter4774">
      <feFlood
         flood-opacity="0.498039"
         flood-color="rgb(0,0,0)"
         result="flood"
         id="feFlood4776" />
      <feComposite
         in="flood"
         in2="SourceGraphic"
         operator="in"
         result="composite1"
         id="feComposite4778" />
      <feGaussianBlur
         in="composite1"
         stdDeviation="7.8"
         result="blur"
         id="feGaussianBlur4780" />
      <feOffset
         dx="2.60417"
         dy="19"
         result="offset"
         id="feOffset4782" />
      <feComposite
         in="SourceGraphic"
         in2="offset"
         operator="over"
         result="composite2"
         id="feComposite4784" />
    </filter>
  </defs>
  <sodipodi:namedview
     id="base"
     pagecolor="#ffffff"
     bordercolor="#666666"
     borderopacity="1.0"
     inkscape:pageopacity="0.0"
     inkscape:pageshadow="2"
     inkscape:zoom="0.35355339"
     inkscape:cx="488.62365"
     inkscape:cy="561.8014"
     inkscape:document-units="px"
     inkscape:current-layer="layer1"
     showgrid="false"
     units="px"
     showguides="true"
     inkscape:guide-bbox="true"
     inkscape:window-width="1463"
     inkscape:window-height="760"
     inkscape:window-x="-8"
     inkscape:window-y="-8"
     inkscape:window-maximized="1"
     inkscape:snap-others="false"
     inkscape:snap-nodes="false"
     inkscape:snap-to-guides="false" />
  <metadata
     id="metadata7">
    <rdf:RDF>
      <cc:Work
         rdf:about="">
        <dc:format>image/svg+xml</dc:format>
        <dc:type
           rdf:resource="http://purl.org/dc/dcmitype/StillImage" />
        <dc:title></dc:title>
      </cc:Work>
    </rdf:RDF>
  </metadata>
  <g
     inkscape:label="Layer 1"
     inkscape:groupmode="layer"
     id="layer1"
     transform="translate(0,-52.362161)">
    <path
       style="fill:#deb388;fill-rule:evenodd;stroke:none;stroke-width:1px;stroke-linecap:butt;stroke-linejoin:miter;stroke-opacity:1;fill-opacity:1"
       d="m 189.22461,480.28353 0.46544,197.40602 c 5.40952,231.7662 220.26361,293.83767 315.22807,292.2578 86.38612,-1.43716 300.20283,-34.60028 308.10572,-291.01303 l 0.46543,-197.40309 C 811.98241,424.8611 786.28974,413.17408 748.4231,413.17408 l -144.59792,0.77616 0,-0.24602 -364.68105,-1.77492 c -35.45203,0.95977 -49.34915,27.99724 -49.91952,68.35423 z"
       id="path4684"
       inkscape:connector-curvature="0"
       sodipodi:nodetypes="ccsccccccc" />
    <path
       style="opacity:1;fill:#aa4400;fill-opacity:1;fill-rule:evenodd;stroke:none;stroke-width:1;stroke-miterlimit:4;stroke-dasharray:none;stroke-opacity:1"
       d="m 551.06055,367.48207 c -7.02914,-3.2e-4 -12.72777,5.69743 -12.72852,12.72657 0.0473,-0.008 -0.12109,38.30511 -0.12109,38.30511 -3.3e-4,7.0299 5.69861,12.72884 12.72851,12.72851 7.0299,3.3e-4 12.72884,-5.69861 12.72852,-12.72851 l 0.12109,-38.30511 c -7.5e-4,-7.02914 -5.69938,-12.72689 -12.72851,-12.72657 z"
       id="rect4864-7-9-6-0"
       inkscape:connector-curvature="0"
       sodipodi:nodetypes="ccccccc" />
    <path
       style="fill:#b57b4a;fill-rule:evenodd;stroke:none;stroke-width:1px;stroke-linecap:butt;stroke-linejoin:miter;stroke-opacity:1;fill-opacity:1"
       d="m 763.64851,413.66275 c 35.45203,0.95977 49.34948,27.99724 49.91985,68.35423 l -0.4657,196.5776 C 807.69314,910.36078 620.5828,970.18349 506.1237,970.1032 l 1.25941,-555.13702 256.2654,-1.30335 z"
       id="path4684-3"
       inkscape:connector-curvature="0"
       sodipodi:nodetypes="ccccccc" />
    <path
       style="fill:#552200;fill-opacity:1;fill-rule:evenodd;stroke:none;stroke-width:1px;stroke-linecap:butt;stroke-linejoin:miter;stroke-opacity:1"
       d="m 506.40433,655.79031 c -96.44322,-1.16903 -187.74329,19.18114 -246.76262,74.49316 40.39905,149.09496 151.52635,195.96529 245.42123,198.34499 93.89488,2.37968 200.38766,-43.7506 238.00924,-197.09729 -66.93986,-62.36379 -140.22463,-74.57183 -236.66785,-75.74086 z"
       id="path4686"
       inkscape:connector-curvature="0"
       sodipodi:nodetypes="zczcz" />
    <ellipse
       style="opacity:1;fill:#552200;fill-opacity:1;fill-rule:evenodd;stroke:none;stroke-width:1;stroke-miterlimit:4;stroke-dasharray:none;stroke-opacity:1"
       id="path4215"
       cx="291.26328"
       cy="605.87079"
       rx="32.871414"
       ry="68.393753" />
    <path
       style="opacity:1;fill:#939dac;fill-opacity:1;fill-rule:evenodd;stroke:none;stroke-width:1;stroke-miterlimit:4;stroke-dasharray:none;stroke-opacity:1"
       d="m 317.61748,612.30813 c -1.06939,2.10965 -2.21015,4.23092 -3.56137,6.25317 -1.56068,2.33569 -3.31646,4.55232 -5.28195,6.50797 -1.96548,1.95566 -4.13849,3.65072 -6.53966,4.94396 -1.20058,0.64661 -2.45789,1.19453 -3.77318,1.6226 -1.31529,0.42806 -2.68971,0.73667 -4.12358,0.91088 -1.76756,0.21474 -3.46583,0.22153 -5.09627,0.0468 -1.63044,-0.17468 -3.19412,-0.52873 -4.691,-1.04268 -1.49687,-0.51397 -2.92668,-1.18559 -4.29353,-1.98872 -1.36685,-0.80312 -2.66877,-1.74029 -3.90915,-2.78244 -2.48077,-2.08429 -4.71341,-4.59432 -6.70963,-7.33391 -1.65702,-2.2741 -3.05705,-4.74989 -4.39813,-7.22263 a 26.371406,50.746197 0 0 0 26.1822,45.19558 26.371406,50.746197 0 0 0 26.19525,-45.11064 z"
       id="path4709"
       inkscape:connector-curvature="0" />
    <path
       style="opacity:1;fill:#ececec;fill-opacity:1;fill-rule:evenodd;stroke:none;stroke-width:1;stroke-miterlimit:4;stroke-dasharray:none;stroke-opacity:1"
       d="m 291.42223,555.92718 a 26.371406,50.746197 0 0 0 -26.37047,50.74579 26.371406,50.746197 0 0 0 0.18827,5.55022 c 1.34108,2.47275 2.74111,4.94854 4.39813,7.22263 1.99622,2.7396 4.22886,5.24962 6.70963,7.33391 1.24038,1.04215 2.5423,1.97932 3.90915,2.78244 1.36685,0.80313 2.79666,1.47475 4.29353,1.98872 1.49688,0.51396 3.06056,0.86801 4.691,1.04268 1.63044,0.17467 3.32871,0.16788 5.09627,-0.0468 1.43387,-0.1742 2.80829,-0.48282 4.12358,-0.91088 1.31529,-0.42807 2.5726,-0.97599 3.77318,-1.62259 2.40117,-1.29325 4.57418,-2.98831 6.53966,-4.94396 1.96549,-1.95566 3.72127,-4.17229 5.28195,-6.50797 1.35122,-2.02225 2.49198,-4.14353 3.56137,-6.25317 a 26.371406,50.746197 0 0 0 0.17782,-5.63517 26.371406,50.746197 0 0 0 -26.37307,-50.74579 z"
       id="path4688"
       inkscape:connector-curvature="0" />
    <ellipse
       style="opacity:1;fill:#552200;fill-opacity:1;fill-rule:evenodd;stroke:none;stroke-width:1;stroke-miterlimit:4;stroke-dasharray:none;stroke-opacity:1"
       id="path4215-9"
       cx="712.04755"
       cy="605.67316"
       rx="32.871414"
       ry="68.393753" />
    <path
       inkscape:connector-curvature="0"
       style="opacity:1;fill:#939dac;fill-opacity:1;fill-rule:evenodd;stroke:none;stroke-width:1;stroke-miterlimit:4;stroke-dasharray:none;stroke-opacity:1"
       d="m 685.09543,613.55502 c 1.06938,2.10965 2.21015,4.23092 3.56137,6.25318 1.56068,2.33568 3.31645,4.55231 5.28195,6.50796 1.96546,1.95566 4.13848,3.65072 6.53965,4.94396 1.20059,0.64661 2.4579,1.19453 3.77319,1.6226 1.31529,0.42806 2.6897,0.73667 4.12356,0.91088 1.76758,0.21474 3.46585,0.22153 5.09629,0.0468 1.63044,-0.17467 3.19412,-0.52873 4.69099,-1.04268 1.49688,-0.51397 2.92669,-1.18559 4.29353,-1.98872 1.36686,-0.80312 2.66877,-1.74029 3.90916,-2.78244 2.48076,-2.08429 4.71341,-4.59432 6.70963,-7.33391 1.65701,-2.2741 3.05704,-4.74989 4.39812,-7.22263 a 26.371406,50.746197 0 0 1 -26.18219,45.19558 26.371406,50.746197 0 0 1 -26.19525,-45.11064 z"
       id="path4709-6" />
    <path
       inkscape:connector-curvature="0"
       style="opacity:1;fill:#ececec;fill-opacity:1;fill-rule:evenodd;stroke:none;stroke-width:1;stroke-miterlimit:4;stroke-dasharray:none;stroke-opacity:1"
       d="m 711.29068,557.17407 a 26.371406,50.746197 0 0 1 26.37047,50.74579 26.371406,50.746197 0 0 1 -0.18828,5.55023 c -1.34108,2.47274 -2.74111,4.94853 -4.39812,7.22262 -1.99622,2.7396 -4.22887,5.24962 -6.70963,7.33391 -1.24039,1.04216 -2.5423,1.97932 -3.90916,2.78244 -1.36684,0.80314 -2.79665,1.47476 -4.29353,1.98872 -1.49687,0.51396 -3.06055,0.86801 -4.69099,1.04268 -1.63044,0.17467 -3.32871,0.16788 -5.09629,-0.0468 -1.43386,-0.17421 -2.80827,-0.48283 -4.12356,-0.91088 -1.31529,-0.42808 -2.5726,-0.976 -3.77319,-1.6226 -2.40117,-1.29325 -4.57419,-2.9883 -6.53965,-4.94396 -1.9655,-1.95566 -3.72127,-4.17229 -5.28195,-6.50797 -1.35122,-2.02225 -2.49199,-4.14352 -3.56137,-6.25317 a 26.371406,50.746197 0 0 1 -0.17782,-5.63517 26.371406,50.746197 0 0 1 26.37307,-50.74579 z"
       id="path4688-1" />
    <path
       style="fill:#aa4400;fill-opacity:1;fill-rule:evenodd;stroke:none;stroke-width:1px;stroke-linecap:butt;stroke-linejoin:miter;stroke-opacity:1"
       d="m 507.36603,832.95589 c 96.88439,0.53025 128.15307,63.62208 128.15307,63.62208 0,0 -45.22732,35.44885 -129.21344,36.05252 -77.46414,0.5568 -133.75788,-41.35435 -133.75788,-41.35435 0,0 37.93386,-58.85051 134.81825,-58.32025 z"
       id="path4739"
       inkscape:connector-curvature="0"
       sodipodi:nodetypes="zcscz" />
    <path
       style="fill:#ff7f2a;fill-rule:evenodd;stroke:none;stroke-width:1px;stroke-linecap:butt;stroke-linejoin:miter;stroke-opacity:1"
       d="m 580.76557,131.20724 c 0,0 37.01834,-11.21541 51.52959,-29.14964 0.52569,6.62243 -13.48706,33.34703 -22.71545,41.62942 7.01457,-1.17363 26.45324,-7.09827 42.53291,-18.69867 -1.17025,14.48725 -25.07673,43.35751 -33.5617,42.35486 -8.48497,-1.00266 -37.78535,-36.13597 -37.78535,-36.13597 z"
       id="path4944"
       inkscape:connector-curvature="0"
       sodipodi:nodetypes="ccccsc" />
    <path
       style="opacity:1;fill:#1da1f2;fill-opacity:1;fill-rule:evenodd;stroke:none;stroke-width:1;stroke-miterlimit:4;stroke-dasharray:none;stroke-opacity:1"
       d="m 543.25888,109.08227 c -45.29998,5.4e-4 -82.02277,37.98952 -82.02344,84.85156 0.0322,11.54544 2.34172,22.96262 6.78711,33.55273 -14.57668,-2.17002 -61.79535,-5.91829 -149.6241,-80.22129 -12.72793,46.66905 15.55677,67.88206 28.28469,87.68104 -18.38478,-4.24264 -25.45477,-7.07151 -39.5969,-12.72837 15.55636,72.1249 63.63913,77.78335 63.63913,77.78335 0,0 -19.79942,8.48512 -42.42684,-1.5e-4 15.55634,35.35534 22.4835,46.97963 67.8822,57.98121 -17.18615,29.40469 -89.09539,48.08493 -89.09539,48.08493 0,0 69.61789,61.93221 219.20254,-5.65795 81.47005,-36.81242 100.2297,-134.77711 100.4106,-206.4755 0.11824,-46.86268 -38.13886,-84.85213 -83.4396,-84.85156 z"
       id="path4798"
       inkscape:connector-curvature="0"
       sodipodi:nodetypes="scccccccccsss" />
    <path
       style="opacity:1;fill:#ff6600;fill-opacity:1;fill-rule:evenodd;stroke:none;stroke-width:1;stroke-miterlimit:4;stroke-dasharray:none;stroke-opacity:1"
       d="m 483.96423,396.18647 c -7.02914,-3.2e-4 -12.72777,5.69743 -12.72852,12.72657 0.0473,-0.008 -0.12109,26.30512 -0.12109,26.30512 -3.3e-4,7.0299 5.69861,12.72884 12.72851,12.72851 7.0299,3.3e-4 12.72884,-5.69861 12.72852,-12.72851 l 0.12109,-26.30512 c -7.5e-4,-7.02914 -5.69938,-12.72689 -12.72851,-12.72657 z"
       id="rect4864-7"
       inkscape:connector-curvature="0"
       sodipodi:nodetypes="ccccccc" />
    <path
       style="opacity:1;fill:#ff6600;fill-opacity:1;fill-rule:evenodd;stroke:none;stroke-width:1;stroke-miterlimit:4;stroke-dasharray:none;stroke-opacity:1"
       d="m 530.87591,384.18647 c -7.02914,-3.2e-4 -12.72777,5.69743 -12.72852,12.72657 0.0473,-0.008 -0.12109,38.30511 -0.12109,38.30511 -3.3e-4,7.0299 5.69861,12.72884 12.72851,12.72851 7.0299,3.3e-4 12.72884,-5.69861 12.72852,-12.72851 l 0.12109,-38.30511 c -7.5e-4,-7.02914 -5.69938,-12.72689 -12.72851,-12.72657 z"
       id="rect4864-7-9-6"
       inkscape:connector-curvature="0"
       sodipodi:nodetypes="ccccccc" />
    <path
       style="opacity:1;fill:#ff7f2b;fill-opacity:1;fill-rule:evenodd;stroke:none;stroke-width:1;stroke-miterlimit:4;stroke-dasharray:none;stroke-opacity:1"
       d="m 507.42007,390.18647 c -7.02914,-3.2e-4 -12.72777,5.69743 -12.72852,12.72657 0.0473,-0.008 -0.12109,32.30512 -0.12109,32.30512 -3.3e-4,7.0299 5.69861,12.72884 12.72851,12.72851 7.0299,3.3e-4 12.72884,-5.69861 12.72852,-12.72851 l 0.12109,-32.30512 c -7.5e-4,-7.02914 -5.69938,-12.72689 -12.72851,-12.72657 z"
       id="rect4864-7-9"
       inkscape:connector-curvature="0"
       sodipodi:nodetypes="ccccccc" />
    <circle
       style="opacity:1;fill:#2b1100;fill-opacity:1;fill-rule:evenodd;stroke:none;stroke-width:1;stroke-miterlimit:4;stroke-dasharray:none;stroke-opacity:1"
       id="path4946"
       cx="540.24261"
       cy="166.60481"
       r="18.242641" />
    <circle
       style="opacity:1;fill:#ffe6d5;fill-opacity:1;fill-rule:evenodd;stroke:none;stroke-width:1;stroke-miterlimit:4;stroke-dasharray:none;stroke-opacity:1"
       id="path4948"
       cx="543.50024"
       cy="156.18044"
       r="7.8182745" />
  </g>
</svg>
