<?xml version="1.0" encoding="UTF-8" standalone="no"?>
<!-- Created with Inkscape (http://www.inkscape.org/) -->

<svg
   xmlns:dc="http://purl.org/dc/elements/1.1/"
   xmlns:cc="http://creativecommons.org/ns#"
   xmlns:rdf="http://www.w3.org/1999/02/22-rdf-syntax-ns#"
   xmlns:svg="http://www.w3.org/2000/svg"
   xmlns="http://www.w3.org/2000/svg"
   xmlns:sodipodi="http://sodipodi.sourceforge.net/DTD/sodipodi-0.dtd"
   xmlns:inkscape="http://www.inkscape.org/namespaces/inkscape"
   width="1000"
   height="1000"
   viewBox="0 0 1000 1000"
   id="svg2"
   version="1.1"
   inkscape:version="0.91 r13725"
   sodipodi:docname="RobotIconEmail.svg">
  <defs
     id="defs4" />
  <sodipodi:namedview
     id="base"
     pagecolor="#ffffff"
     bordercolor="#666666"
     borderopacity="1.0"
     inkscape:pageopacity="0.0"
     inkscape:pageshadow="2"
     inkscape:zoom="0.70710678"
     inkscape:cx="337.50698"
     inkscape:cy="578.09121"
     inkscape:document-units="px"
     inkscape:current-layer="layer1"
     showgrid="false"
     units="px"
     showguides="true"
     inkscape:guide-bbox="true"
     inkscape:window-width="1463"
     inkscape:window-height="760"
     inkscape:window-x="-8"
     inkscape:window-y="-8"
     inkscape:window-maximized="1"
     inkscape:snap-others="false"
     inkscape:snap-nodes="false"
     inkscape:snap-to-guides="true" />
  <metadata
     id="metadata7">
    <rdf:RDF>
      <cc:Work
         rdf:about="">
        <dc:format>image/svg+xml</dc:format>
        <dc:type
           rdf:resource="http://purl.org/dc/dcmitype/StillImage" />
        <dc:title />
      </cc:Work>
    </rdf:RDF>
  </metadata>
  <g
     inkscape:label="Layer 1"
     inkscape:groupmode="layer"
     id="layer1"
     transform="translate(0,-52.362161)">
    <path
       inkscape:connector-curvature="0"
       style="fill:#c5580f;fill-opacity:1;fill-rule:evenodd;stroke:none;stroke-width:1px;stroke-linecap:butt;stroke-linejoin:miter;stroke-opacity:1"
       d="m 495.88562,110.31992 c -0.98221,0.008 -1.97767,0.0629 -2.99041,0.16698 l 0,0.17507 c -15.45716,-0.85666 -27.24837,9.70924 -36.70067,16.41079 -24.74861,17.54634 -182.77476,135.24631 -227.80807,176.83953 -20.37524,18.81879 -21.11907,26.28766 -20.61625,39.08101 l -0.0502,17.92177 c 0,0 17.2897,-5.8572 31.89169,4.3175 58.05755,40.45462 202.19192,156.59826 226.23765,162.9228 18.6012,4.89249 27.88513,4.23131 27.88513,4.23131 l 0,-0.29089 c 0.43255,0.0274 9.56152,0.54175 27.71882,-4.234 24.04573,-6.32453 168.18011,-122.46818 226.23765,-162.9228 14.60199,-10.1747 31.88906,-4.31481 31.88906,-4.31481 l -0.0474,-17.92446 C 780.03543,329.90637 779.29161,322.4402 758.91637,303.62141 713.88305,262.02819 555.8569,144.32552 531.1083,126.77918 c -9.14846,-6.4861 -20.4891,-16.59286 -35.22264,-16.45926 z"
       id="path4741-9" />
    <path
       style="fill:#de864b;fill-opacity:1;fill-rule:evenodd;stroke:none;stroke-width:1px;stroke-linecap:butt;stroke-linejoin:miter;stroke-opacity:1"
       d="m 225.05517,330.19583 c 7.87018,5.56504 26.29925,4.16574 35.96669,1.65867 38.02926,-43.87992 209.22341,-165.54912 215.61149,-170.68717 5.17717,-4.16409 21.79098,-4.99092 21.93996,-4.87554 l 0.97511,-29.25329 c 0,0 -9.26355,-2.43777 -18.52708,0 -31.69105,18.03953 -231.58844,171.95383 -255.96617,203.15733 z"
       id="path4767"
       inkscape:connector-curvature="0" />
    <path
       style="fill:#de864b;fill-opacity:1;fill-rule:evenodd;stroke:none;stroke-width:1px;stroke-linecap:butt;stroke-linejoin:miter;stroke-opacity:1"
       d="m 764.66226,330.54458 c -7.87018,5.56504 -26.29925,4.16575 -35.96669,1.65867 -38.02926,-43.87992 -209.22341,-165.54912 -215.61149,-170.68717 -5.17717,-4.16409 -21.79098,-4.99092 -21.93996,-4.87554 l -0.97511,-29.25328 c 0,0 9.26355,-2.43778 18.52708,0 31.69105,18.03952 231.58844,171.95382 255.96617,203.15732 z"
       id="path4767-8"
       inkscape:connector-curvature="0" />
    <path
       style="fill:#e0e0de;fill-opacity:1;fill-rule:evenodd;stroke:none;stroke-width:1px;stroke-linecap:butt;stroke-linejoin:miter;stroke-opacity:1"
       d="m 253.82171,205.43088 0,81.25941 0,52.32976 0,37.93361 c 63.8777,46.2364 191.52236,148.31006 214.02438,154.22858 18.6012,4.89248 27.8846,4.2313 27.8846,4.2313 l 0,-0.29089 c 0.43256,0.0274 9.56033,0.54175 27.71762,-4.23399 22.28611,-5.86173 147.61531,-105.96063 212.07706,-152.80108 l 0,-93.28805 c -0.31322,-0.25901 -0.65892,-0.53906 -0.975,-0.79994 l 0,-78.56871 -480.72866,0 z"
       id="path4741-4"
       inkscape:connector-curvature="0" />
    <rect
       style="opacity:1;fill:#b3b3b3;fill-opacity:1;fill-rule:evenodd;stroke:none;stroke-width:1;stroke-miterlimit:4;stroke-dasharray:none;stroke-opacity:1"
       id="rect4898-7-1-2"
       width="281.56503"
       height="13.651529"
       x="295.07706"
       y="413.88538" />
    <rect
       style="opacity:1;fill:#b3b3b3;fill-opacity:1;fill-rule:evenodd;stroke:none;stroke-width:1;stroke-miterlimit:4;stroke-dasharray:none;stroke-opacity:1"
       id="rect4898-7-1-1"
       width="187.95454"
       height="13.651529"
       x="295.07706"
       y="446.92706" />
    <path
       style="fill:#e9ddaf;fill-rule:evenodd;stroke:none;stroke-width:1px;stroke-linecap:butt;stroke-linejoin:miter;stroke-opacity:1"
       d="M 207.52539 294.36328 C 207.52539 294.36328 207.41393 551.29823 207.55469 647.83984 C 212.52926 860.97085 410.10671 918.05245 497.43555 916.59961 C 576.87578 915.278 773.50206 884.78218 780.76953 648.98633 C 781.72003 649.45056 779.36174 350.72863 779.01562 307.42188 C 777.11135 306.82885 761.21454 302.29329 747.5 311.84961 C 701.28456 344.05263 600.58322 424.16394 549.27344 458.7168 C 527.57179 447.51877 509.02515 440.51166 497.21484 440.08203 C 483.34748 439.57757 462.5948 448.70168 440.65234 461.03125 C 390.35109 427.65826 286.53934 344.97549 239.41992 312.14258 C 224.81793 301.96788 207.53125 307.82422 207.53125 307.82422 L 207.56836 294.36328 L 207.52539 294.36328 z "
       transform="translate(0,52.362161)"
       id="path4684" />
    <path
       style="fill:#d8c98d;fill-opacity:1;fill-rule:evenodd;stroke:none;stroke-width:1px;stroke-linecap:butt;stroke-linejoin:miter;stroke-opacity:1"
       d="m 766.76528,357.18114 c -5.9266,-0.0135 -13.3283,1.24137 -20.1856,6.01953 -46.2154,32.20302 -146.9169,112.31432 -198.2266,146.86718 -21.7017,-11.19803 -40.2482,-18.20513 -52.0586,-18.63476 -0.7745,-0.0282 -1.574,-0.021 -2.3906,0.01 l 0,476.52344 c 0.8745,-0.003 1.7577,-0.001 2.6114,-0.0156 79.4402,-1.32161 276.0665,-31.81743 283.3339,-267.61328 0.9505,0.46423 -1.4077,-298.25771 -1.7539,-341.56446 -0.9521,-0.29651 -5.4035,-1.57832 -11.33,-1.59179 z"
       id="path4684-2"
       inkscape:connector-curvature="0" />
    <path
       style="fill:#923a00;fill-opacity:1;fill-rule:evenodd;stroke:none;stroke-width:1px;stroke-linecap:butt;stroke-linejoin:miter;stroke-opacity:1"
       d="m 498.80335,680.06443 c -88.68869,-1.07504 -172.64776,17.63888 -226.92164,68.50353 37.15076,137.10696 139.34285,180.20868 225.6881,182.39703 86.34525,2.18834 184.27547,-40.23282 218.87208,-181.24965 -61.55755,-57.34943 -128.94985,-68.57587 -217.63854,-69.65091 z"
       id="path4686"
       inkscape:connector-curvature="0" />
    <ellipse
       style="opacity:1;fill:#923a00;fill-opacity:1;fill-rule:evenodd;stroke:none;stroke-width:1;stroke-miterlimit:4;stroke-dasharray:none;stroke-opacity:1"
       id="path4215-3"
       cx="301"
       cy="636.36218"
       rx="30.571472"
       ry="61.608387" />
    <path
       style="opacity:1;fill:#c4ab6c;fill-opacity:1;fill-rule:evenodd;stroke:none;stroke-width:1;stroke-miterlimit:4;stroke-dasharray:none;stroke-opacity:1"
       d="m 325.19593,640.07844 c -0.9834,1.94002 -2.03244,3.89073 -3.27502,5.75039 -1.43519,2.14788 -3.04979,4.18628 -4.85725,5.98469 -1.80745,1.79841 -3.80573,3.35718 -6.01384,4.54644 -1.10405,0.59462 -2.26027,1.09848 -3.4698,1.49213 -1.20953,0.39364 -2.47344,0.67744 -3.79202,0.83764 -1.62544,0.19748 -3.18716,0.20373 -4.68651,0.043 -1.49934,-0.16063 -2.93729,-0.48621 -4.31381,-0.95884 -1.37652,-0.47264 -2.69136,-1.09026 -3.94831,-1.82882 -1.25695,-0.73855 -2.45418,-1.60036 -3.59483,-2.55872 -2.2813,-1.9167 -4.33443,-4.22491 -6.17015,-6.74422 -1.52378,-2.09125 -2.81124,-4.36797 -4.04449,-6.6419 a 24.25101,46.665942 0 0 0 24.07701,41.56163 24.25101,46.665942 0 0 0 24.08902,-41.48352 z"
       id="path4709"
       inkscape:connector-curvature="0" />
    <path
       style="opacity:1;fill:#f6f1e2;fill-opacity:1;fill-rule:evenodd;stroke:none;stroke-width:1;stroke-miterlimit:4;stroke-dasharray:none;stroke-opacity:1"
       d="m 301.10691,588.2308 a 24.25101,46.665942 0 0 0 -24.25015,46.66557 24.25101,46.665942 0 0 0 0.17314,5.10396 c 1.23325,2.27393 2.52071,4.55065 4.04449,6.64189 1.83572,2.51932 3.88885,4.82753 6.17015,6.74423 1.14065,0.95836 2.33788,1.82017 3.59483,2.55872 1.25695,0.73856 2.57179,1.35617 3.94831,1.82882 1.37652,0.47263 2.81447,0.79821 4.31381,0.95884 1.49935,0.16063 3.06107,0.15438 4.68651,-0.043 1.31858,-0.1602 2.58249,-0.444 3.79202,-0.83764 1.20953,-0.39365 2.36575,-0.89751 3.4698,-1.49213 2.20811,-1.18926 4.20639,-2.74803 6.01384,-4.54644 1.80746,-1.79841 3.42206,-3.83681 4.85725,-5.98469 1.24258,-1.85966 2.29162,-3.81037 3.27502,-5.75039 a 24.25101,46.665942 0 0 0 0.16352,-5.18207 24.25101,46.665942 0 0 0 -24.25254,-46.66557 z"
       id="path4688"
       inkscape:connector-curvature="0" />
    <ellipse
       style="opacity:1;fill:#923a00;fill-opacity:1;fill-rule:evenodd;stroke:none;stroke-width:1;stroke-miterlimit:4;stroke-dasharray:none;stroke-opacity:1"
       id="path4215"
       cx="687.34882"
       cy="636.36218"
       rx="30.571472"
       ry="61.608387" />
    <path
       style="opacity:1;fill:#c4ab6c;fill-opacity:1;fill-rule:evenodd;stroke:none;stroke-width:1;stroke-miterlimit:4;stroke-dasharray:none;stroke-opacity:1"
       d="m 663.12677,641.22508 c 0.9834,1.94002 2.03244,3.89073 3.27501,5.75038 1.4352,2.14788 3.0498,4.18629 4.85726,5.9847 1.80743,1.79841 3.80573,3.35718 6.01383,4.54644 1.10405,0.59461 2.26027,1.09848 3.4698,1.49213 1.20954,0.39364 2.47344,0.67744 3.79201,0.83764 1.62546,0.19747 3.18718,0.20372 4.68652,0.043 1.49935,-0.16062 2.9373,-0.48621 4.31382,-0.95884 1.37651,-0.47264 2.69136,-1.09026 3.9483,-1.82882 1.25696,-0.73854 2.45419,-1.60035 3.59484,-2.55871 2.2813,-1.91671 4.33443,-4.22491 6.17015,-6.74423 1.52378,-2.09124 2.81124,-4.36797 4.04449,-6.64189 a 24.25101,46.665942 0 0 1 -24.07701,41.56162 24.25101,46.665942 0 0 1 -24.08902,-41.48351 z"
       id="path4709-6"
       inkscape:connector-curvature="0" />
    <path
       style="opacity:1;fill:#f6f1e2;fill-opacity:1;fill-rule:evenodd;stroke:none;stroke-width:1;stroke-miterlimit:4;stroke-dasharray:none;stroke-opacity:1"
       d="m 687.21579,589.37744 a 24.25101,46.665942 0 0 1 24.25014,46.66557 24.25101,46.665942 0 0 1 -0.17313,5.10396 c -1.23325,2.27392 -2.52071,4.55064 -4.04449,6.64189 -1.83572,2.51932 -3.88885,4.82752 -6.17015,6.74423 -1.14065,0.95836 -2.33788,1.82017 -3.59484,2.55871 -1.25694,0.73856 -2.57179,1.35618 -3.9483,1.82882 -1.37652,0.47263 -2.81447,0.79822 -4.31382,0.95884 -1.49934,0.16063 -3.06106,0.15438 -4.68652,-0.043 -1.31857,-0.1602 -2.58247,-0.444 -3.79201,-0.83764 -1.20953,-0.39365 -2.36575,-0.89752 -3.4698,-1.49213 -2.2081,-1.18927 -4.2064,-2.74803 -6.01383,-4.54644 -1.80746,-1.79842 -3.42206,-3.83682 -4.85726,-5.9847 -1.24257,-1.85965 -2.29161,-3.81036 -3.27501,-5.75038 a 24.25101,46.665942 0 0 1 -0.16353,-5.18207 24.25101,46.665942 0 0 1 24.25255,-46.66557 z"
       id="path4688-1"
       inkscape:connector-curvature="0" />
    <path
       style="fill:#c5580f;fill-opacity:1;fill-rule:evenodd;stroke:none;stroke-width:1px;stroke-linecap:butt;stroke-linejoin:miter;stroke-opacity:1"
       d="m 499.68773,840.22696 c 89.09438,0.48762 119.22792,59.54081 119.22792,59.54081 0,0 -42.96983,31.56431 -120.20304,32.11945 -71.23563,0.51203 -123.69257,-35.27123 -123.69257,-35.27123 0,0 35.57329,-56.87665 124.66769,-56.38903 z"
       id="path4739"
       inkscape:connector-curvature="0" />
    <rect
       style="opacity:1;fill:#b3b3b3;fill-opacity:1;fill-rule:evenodd;stroke:none;stroke-width:1;stroke-miterlimit:4;stroke-dasharray:none;stroke-opacity:1"
       id="rect4898"
       width="136.51529"
       height="13.651529"
       x="295.07706"
       y="249.00487" />
    <rect
       style="opacity:1;fill:#b3b3b3;fill-opacity:1;fill-rule:evenodd;stroke:none;stroke-width:1;stroke-miterlimit:4;stroke-dasharray:none;stroke-opacity:1"
       id="rect4898-7"
       width="136.51529"
       height="13.651529"
       x="295.07706"
       y="281.93719" />
    <rect
       style="opacity:1;fill:#b3b3b3;fill-opacity:1;fill-rule:evenodd;stroke:none;stroke-width:1;stroke-miterlimit:4;stroke-dasharray:none;stroke-opacity:1"
       id="rect4898-7-66"
       width="299.92828"
       height="13.651529"
       x="295.07706"
       y="347.80212" />
    <rect
       style="opacity:1;fill:#b3b3b3;fill-opacity:1;fill-rule:evenodd;stroke:none;stroke-width:1;stroke-miterlimit:4;stroke-dasharray:none;stroke-opacity:1"
       id="rect4898-7-1"
       width="299.117"
       height="13.651529"
       x="295.07706"
       y="380.84378" />
    <ellipse
       style="opacity:1;fill:#ffffff;fill-opacity:1;fill-rule:evenodd;stroke:none;stroke-width:1;stroke-miterlimit:4;stroke-dasharray:none;stroke-opacity:1"
       id="path5004"
       cx="306.96436"
       cy="608.15094"
       rx="6.3382101"
       ry="7.8008738" />
    <ellipse
       style="opacity:1;fill:#ffffff;fill-opacity:1;fill-rule:evenodd;stroke:none;stroke-width:1;stroke-miterlimit:4;stroke-dasharray:none;stroke-opacity:1"
       id="path5004-5"
       cx="690.66986"
       cy="607.81635"
       rx="6.3382101"
       ry="7.8008738" />
    <path
       style="fill:#c4ab6c;fill-opacity:1;fill-rule:evenodd;stroke:none;stroke-width:1px;stroke-linecap:butt;stroke-linejoin:miter;stroke-opacity:1"
       d="m 498.9406,474.93848 c -14.98437,0.3102 -29.05003,9.1488 -39.68946,16.75391 -10.18335,7.21983 -57.78253,42.00309 -95.93945,70.85742 -1.56825,2.05079 -1.93804,3.92293 -1.50781,5.62695 35.3909,-22.5831 104.07026,-72.68728 136.11719,-71.52148 27.34319,0.99467 90.72125,37.15018 146.01562,79.29882 0.37513,-2.32508 -0.76572,-4.95243 -4.29883,-7.87109 -37.32349,-28.20519 -95.46419,-69.58833 -105.47461,-76.68555 -9.14846,-6.4861 -20.48911,-16.59258 -35.22265,-16.45898 z"
       id="path4741-9-2-5"
       inkscape:connector-curvature="0" />
  </g>
</svg>
